<svg xmlns="http://www.w3.org/2000/svg" viewBox="0 0 960 560" role="img" aria-label="Флейта: pitch через FFT">
  <rect width="960" height="560" fill="#f8f4ea"/>
  <g stroke="#d5cdbc" stroke-width="1"><line x1="72.0" y1="72" x2="72.0" y2="488"/><line x1="235.2" y1="72" x2="235.2" y2="488"/><line x1="398.4" y1="72" x2="398.4" y2="488"/><line x1="561.6" y1="72" x2="561.6" y2="488"/><line x1="724.8" y1="72" x2="724.8" y2="488"/><line x1="888.0" y1="72" x2="888.0" y2="488"/><line x1="72" y1="72.0" x2="888" y2="72.0"/><line x1="72" y1="176.0" x2="888" y2="176.0"/><line x1="72" y1="280.0" x2="888" y2="280.0"/><line x1="72" y1="384.0" x2="888" y2="384.0"/><line x1="72" y1="488.0" x2="888" y2="488.0"/></g>
  <line x1="72" y1="280.0" x2="888" y2="280.0" stroke="#b8af9b" stroke-width="2"/>
  <polyline points="72.0,280.0 72.7,196.8 73.4,244.2 74.0,354.4 74.7,334.0 75.4,218.8 76.1,211.0 76.7,324.3 77.4,359.9 78.1,255.2 78.8,194.1 79.5,283.7 80.1,364.2 80.8,295.5 81.5,213.4 82.2,249.5 82.9,339.2 83.5,324.9 84.2,231.8 84.9,224.5 85.6,311.5 86.2,336.2 86.9,264.2 87.6,219.9 88.3,281.1 89.0,340.4 89.6,293.7 90.3,223.0 91.0,252.4 91.7,330.3 92.4,319.9 93.0,239.5 93.7,230.1 94.4,308.1 95.1,335.8 95.7,266.0 96.4,221.5 97.1,279.6 97.8,338.5 98.5,294.7 99.1,225.1 99.8,251.9 100.5,328.0 101.2,319.8 101.9,241.8 102.5,231.7 103.2,280.0 103.9,313.0 104.6,321.7 105.2,307.0 105.9,280.2 106.6,254.1 107.3,242.9 108.0,252.7 108.6,278.0 109.3,303.5 110.0,314.7 110.7,306.4 111.4,283.5 112.0,256.9 112.7,249.1 113.4,286.1 114.1,312.2 114.7,281.7 115.4,251.1 116.1,272.0 116.8,304.4 117.5,293.9 118.1,259.0 118.8,261.0 119.5,296.3 120.2,303.0 120.8,269.3 121.5,254.4 122.2,284.4 122.9,306.7 123.6,282.1 124.2,253.3 124.9,270.5 125.6,309.1 126.3,296.4 127.0,258.5 127.6,256.7 128.3,304.5 129.0,325.5 129.7,254.6 130.3,200.4 131.0,292.5 131.7,373.7 132.4,290.0 133.1,186.5 133.7,247.1 134.4,365.4 135.1,333.8 135.8,207.7 136.5,208.5 137.1,333.1 137.8,357.8 138.5,250.3 139.2,200.0 139.8,289.4 140.5,346.1 141.2,286.5 141.9,238.3 142.6,264.9 143.2,315.4 143.9,303.4 144.6,250.4 145.3,249.4 146.0,302.1 146.6,316.0 147.3,266.7 148.0,240.7 148.7,283.7 149.3,320.2 150.0,286.1 150.7,241.3 151.4,264.4 152.1,314.9 152.7,305.0 153.4,246.6 154.1,240.4 154.8,310.3 155.5,337.4 156.1,258.8 156.8,207.2 157.5,285.3 158.2,361.0 158.8,294.8 159.5,200.0 160.2,245.6 160.9,351.6 161.6,331.9 162.2,221.1 162.9,213.7 163.6,322.6 164.3,356.9 164.9,256.1 165.6,190.5 166.3,284.3 167.0,387.5 167.7,302.5 168.3,170.0 169.0,229.7 169.7,377.7 170.4,352.3 171.1,205.4 171.7,195.4 172.4,329.3 173.1,370.0 173.8,256.7 174.4,199.5 175.1,281.5 175.8,358.7 176.5,297.8 177.2,205.1 177.8,243.3 178.5,352.6 179.2,342.3 179.9,215.6 180.6,200.8 181.2,325.0 181.9,370.2 182.6,257.1 183.3,184.2 183.9,279.4 184.6,375.7 185.3,304.0 186.0,193.1 186.7,238.8 187.3,345.3 188.0,365.4 188.7,278.2 189.4,225.5 190.1,377.4 190.7,166.6 191.4,374.4 192.1,232.6 192.8,265.9 193.4,351.6 194.1,166.9 194.8,405.4 195.5,179.7 196.2,323.1 196.8,310.7 197.5,178.8 198.2,427.2 198.9,131.6 199.6,386.3 200.2,246.7 200.9,234.5 201.6,387.3 202.3,134.8 202.9,422.8 203.6,185.1 204.3,299.1 205.0,341.0 205.7,161.2 206.3,420.5 207.0,154.3 207.7,355.3 208.4,276.4 209.0,213.6 209.7,396.3 210.4,146.2 211.1,393.1 211.8,220.0 212.4,270.4 213.1,343.8 213.8,200.4 214.5,348.0 215.2,227.9 215.8,315.3 216.5,262.2 217.2,279.9 217.9,282.8 218.5,312.5 219.2,188.7 219.9,407.7 220.6,152.1 221.3,372.0 221.9,250.5 222.6,236.9 223.3,387.9 224.0,137.5 224.7,415.0 225.3,190.9 226.0,297.9 226.7,338.4 227.4,160.5 228.0,427.7 228.7,146.7 229.4,360.2 230.1,276.1 230.8,206.3 231.4,410.4 232.1,132.2 232.8,403.0 233.5,214.9 234.2,269.6 234.8,363.3 235.5,143.9 236.2,431.8 236.9,161.9 237.5,332.7 238.2,304.5 238.9,186.0 239.6,415.9 240.3,136.2 240.9,423.8 241.6,137.4 242.3,418.8 243.0,147.8 243.7,403.1 244.3,168.3 245.0,378.0 245.7,197.3 246.4,346.1 247.0,231.7 247.7,309.7 248.4,269.5 249.1,271.0 249.8,308.4 250.4,232.8 251.1,347.6 251.8,192.0 252.5,385.5 253.1,159.8 253.8,413.3 254.5,134.9 255.2,434.4 255.9,120.7 256.5,441.3 257.2,121.0 257.9,433.3 258.6,134.3 259.3,416.5 259.9,155.0 260.6,394.3 261.3,179.4 262.0,362.5 262.6,217.9 263.3,320.1 264.0,262.4 264.7,276.0 265.4,305.1 266.0,234.3 266.7,347.2 267.4,190.9 268.1,389.2 268.8,154.3 269.4,419.0 270.1,139.5 270.8,418.2 271.5,139.3 272.1,423.2 272.8,131.8 273.5,436.8 274.2,119.3 274.9,431.4 275.5,140.5 276.2,395.3 276.9,190.9 277.6,348.9 278.3,226.8 278.9,316.5 279.6,260.8 280.3,281.5 281.0,296.3 281.6,246.1 282.3,330.0 283.0,216.6 283.7,354.6 284.4,196.6 285.0,369.8 285.7,182.9 286.4,383.4 287.1,177.3 287.8,374.3 288.4,195.0 289.1,359.4 289.8,207.4 290.5,347.5 291.1,218.1 291.8,335.6 292.5,231.3 293.2,320.8 293.9,247.8 294.5,303.0 295.2,266.6 295.9,283.5 296.6,286.4 297.2,263.8 297.9,305.7 298.6,244.8 299.3,324.2 300.0,224.4 300.6,347.6 301.3,188.7 302.0,183.7 302.7,373.7 303.4,182.4 304.0,347.3 304.7,266.2 305.4,232.4 306.1,374.7 306.7,170.4 307.4,366.3 308.1,248.6 308.8,239.8 309.5,381.0 310.1,152.1 310.8,388.9 311.5,229.3 312.2,254.7 312.9,373.8 313.5,149.4 314.2,399.2 314.9,213.5 315.6,272.1 316.2,357.2 316.9,162.1 317.6,398.3 318.3,202.8 319.0,288.6 319.6,337.3 320.3,176.1 321.0,398.5 321.7,190.5 322.4,305.5 323.0,327.4 323.7,251.2 324.4,208.8 325.1,163.7 325.7,174.0 326.4,187.0 327.1,363.6 327.8,180.1 328.5,368.7 329.1,233.7 329.8,234.5 330.5,183.2 331.2,379.9 331.9,382.9 332.5,385.9 333.2,385.9 333.9,385.9 334.6,192.9 335.2,201.6 335.9,201.3 336.6,386.4 337.3,183.4 338.0,330.0 338.6,288.0 339.3,221.1 340.0,369.3 340.7,193.7 341.3,331.4 342.0,276.0 342.7,238.7 343.4,352.0 344.1,203.9 344.7,333.4 345.4,266.5 346.1,251.6 346.8,337.3 347.5,212.7 348.1,333.7 348.8,258.8 349.5,261.3 350.2,333.0 350.8,208.7 351.5,344.7 352.2,247.3 352.9,269.2 353.6,334.2 354.2,195.1 354.9,364.9 355.6,229.2 356.3,279.0 357.0,332.5 357.6,194.4 358.3,364.4 359.0,296.4 359.7,194.6 360.3,205.3 361.0,314.9 361.7,383.4 362.4,321.9 363.1,205.6 363.7,178.2 364.4,281.5 365.1,396.5 365.8,370.0 366.5,223.3 367.1,147.9 367.8,238.6 368.5,381.3 369.2,399.8 369.8,264.1 370.5,136.0 371.2,189.6 371.9,356.9 372.6,427.5 373.2,312.6 373.9,155.4 374.6,151.8 375.3,312.8 376.0,440.7 376.6,368.3 377.3,183.4 378.0,131.5 378.7,261.8 379.3,410.9 380.0,396.6 380.7,231.7 381.4,112.4 382.1,205.6 382.7,394.5 383.4,429.9 384.1,283.3 384.8,162.4 385.4,175.4 386.1,346.3 386.8,450.6 387.5,339.4 388.2,153.5 388.8,126.7 389.5,292.7 390.2,442.7 390.9,388.2 391.6,193.8 392.2,93.9 392.9,231.3 393.6,433.8 394.3,442.8 394.9,247.2 395.6,92.8 396.3,173.8 397.0,388.4 397.7,466.7 398.3,310.3 399.0,116.5 399.7,130.8 400.4,329.3 401.1,463.1 401.7,366.7 402.4,161.3 403.1,105.1 403.8,268.9 404.4,441.7 405.1,407.8 405.8,217.2 406.5,105.7 407.2,213.4 407.8,404.9 408.5,438.3 409.2,273.7 409.9,123.8 410.6,176.7 411.2,345.7 411.9,421.8 412.6,321.2 413.3,169.6 413.9,159.9 414.6,298.2 415.3,410.1 416.0,358.1 416.7,209.6 417.3,153.3 418.0,255.3 418.7,386.6 419.4,383.9 420.1,250.9 420.7,157.4 421.4,223.0 422.1,340.4 422.8,364.8 423.4,288.6 424.1,201.6 424.8,213.1 425.5,308.8 426.2,364.7 426.8,313.2 427.5,227.3 428.2,209.3 428.9,280.0 429.5,348.6 430.2,329.6 430.9,251.2 431.6,214.5 432.3,259.4 432.9,328.1 433.6,336.3 434.3,273.7 435.0,219.0 435.7,241.0 436.3,312.0 437.0,342.1 437.7,294.1 438.4,231.5 439.0,231.7 439.7,291.0 440.4,333.9 441.1,308.6 441.8,249.1 442.4,229.3 443.1,273.1 443.8,325.1 444.5,320.5 445.2,264.8 445.8,227.5 446.5,255.6 447.2,318.4 447.9,337.4 448.5,282.2 449.2,224.3 449.9,236.4 450.6,303.4 451.3,340.9 451.9,301.9 452.6,235.7 453.3,228.5 454.0,283.3 454.7,330.3 455.3,314.0 456.0,254.3 456.7,222.3 457.4,263.8 458.0,328.5 458.7,332.3 459.4,270.2 460.1,219.1 460.8,244.5 461.4,314.9 462.1,341.3 462.8,290.5 463.5,228.0 464.2,232.8 464.8,294.4 465.5,334.6 466.2,306.5 466.9,245.1 467.5,227.6 468.2,276.0 468.9,329.4 469.6,320.7 470.3,260.2 470.9,219.9 471.6,255.2 472.3,325.0 473.0,339.0 473.6,278.4 474.3,219.5 475.0,235.9 475.7,309.7 476.4,351.4 477.0,304.8 477.7,208.2 478.4,189.0 479.1,294.1 479.8,395.7 480.4,351.2 481.1,215.6 481.8,146.9 482.5,249.5 483.1,404.2 483.8,403.6 484.5,247.0 485.2,131.6 485.9,202.7 486.5,371.7 487.2,426.6 487.9,296.8 488.6,143.2 489.3,161.1 489.9,328.8 490.6,434.8 491.3,346.2 492.0,174.3 492.6,126.9 493.3,278.0 494.0,441.4 494.7,399.0 495.4,212.6 496.0,119.5 496.7,227.8 497.4,396.3 498.1,418.5 498.8,266.7 499.4,133.5 500.1,187.6 500.8,346.5 501.5,400.4 502.1,306.8 502.8,199.3 503.5,201.0 504.2,296.5 504.9,363.2 505.5,321.4 506.2,241.3 506.9,217.9 507.6,271.1 508.3,329.3 508.9,322.1 509.6,265.7 510.3,229.1 511.0,256.5 511.6,313.4 512.3,328.3 513.0,282.5 513.7,233.5 514.4,243.2 515.0,298.6 515.7,329.3 516.4,298.2 517.1,244.6 517.7,235.6 518.4,282.4 519.1,326.3 519.8,312.1 520.5,257.2 521.1,230.1 521.8,265.9 522.5,321.8 523.2,328.1 523.9,271.6 524.5,224.2 525.2,247.0 525.9,311.3 526.6,336.2 527.2,290.1 527.9,235.8 528.6,239.3 529.3,292.1 530.0,328.4 530.6,304.0 531.3,249.5 532.0,232.7 532.7,275.7 533.4,326.4 534.0,321.0 534.7,260.5 535.4,219.2 536.1,254.1 536.7,320.4 537.4,217.4 538.1,219.1 538.8,296.6 539.5,348.1 540.1,279.6 540.8,201.1 541.5,259.2 542.2,369.9 542.9,327.0 543.5,197.4 544.2,212.8 544.9,346.2 545.6,363.4 546.2,234.3 546.9,185.4 547.6,302.6 548.3,380.2 549.0,282.0 549.6,180.4 550.3,253.7 551.0,362.2 551.7,316.5 552.4,228.8 553.0,242.3 553.7,310.4 554.4,318.8 555.1,260.8 555.7,237.2 556.4,267.3 557.1,300.9 557.8,321.3 558.5,318.2 559.1,293.4 559.8,260.9 560.5,240.2 561.2,257.5 561.8,306.5 562.5,309.2 563.2,260.9 563.9,243.6 564.6,265.0 565.2,297.7 565.9,320.0 566.6,282.8 567.3,240.0 568.0,267.5 568.6,315.2 569.3,299.8 570.0,253.2 570.7,257.3 571.3,296.9 572.0,309.9 572.7,296.2 573.4,265.9 574.1,245.2 574.7,281.0 575.4,315.2 576.1,287.2 576.8,251.2 577.5,267.0 578.1,300.2 578.8,310.3 579.5,295.6 580.2,262.8 580.8,255.3 581.5,290.1 582.2,306.1 582.9,276.8 583.6,256.1 584.2,277.0 584.9,306.0 585.6,289.8 586.3,255.2 587.0,263.6 587.6,302.0 588.3,303.0 589.0,261.7 589.7,249.1 590.3,292.8 591.0,319.5 591.7,275.6 592.4,235.6 593.1,273.5 593.7,327.5 594.4,299.9 595.1,227.6 595.8,238.9 596.5,335.8 597.1,341.7 597.8,234.9 598.5,202.2 599.2,308.3 599.8,367.9 600.5,272.9 601.2,190.4 601.9,265.1 602.6,365.8 603.2,314.8 603.9,207.4 604.6,229.4 605.3,338.0 605.9,342.8 606.6,239.7 607.3,211.4 608.0,301.1 608.7,347.0 609.3,276.4 610.0,213.1 610.7,267.9 611.4,333.6 612.1,300.7 612.7,240.7 613.4,252.5 614.1,308.6 614.8,311.1 615.4,261.3 616.1,245.4 616.8,290.2 617.5,317.1 618.2,278.9 618.8,242.7 619.5,272.0 620.2,316.4 620.9,298.2 621.6,243.9 622.2,250.2 622.9,312.9 623.6,320.1 624.3,256.6 624.9,231.4 625.6,294.5 626.3,343.7 627.0,279.7 627.7,215.7 628.3,263.0 629.0,354.5 629.7,319.3 630.4,210.7 631.1,223.0 631.7,338.3 632.4,356.3 633.1,237.4 633.8,190.7 634.4,301.4 635.1,375.1 635.8,281.8 636.5,185.3 637.2,255.0 637.8,368.5 638.5,326.7 639.2,202.9 639.9,214.4 640.5,341.0 641.2,360.5 641.9,238.7 642.6,188.4 643.3,299.6 643.9,378.4 644.6,284.4 645.3,181.3 646.0,251.4 646.7,371.8 647.3,340.4 648.0,240.6 648.7,196.2 649.4,256.2 650.0,374.4 650.7,180.8 651.4,355.7 652.1,249.3 652.8,255.4 653.4,350.2 654.1,193.7 654.8,362.7 655.5,208.2 656.2,340.1 656.8,215.1 657.5,375.6 658.2,151.3 658.9,406.5 659.5,193.5 660.2,296.3 660.9,348.6 661.6,152.1 662.3,424.7 662.9,155.1 663.6,353.5 664.3,278.8 665.0,202.1 665.7,423.5 666.3,115.3 667.0,418.6 667.7,207.7 668.4,265.1 669.0,375.9 669.7,140.0 670.4,420.0 671.1,170.3 671.8,328.6 672.4,306.4 673.1,186.2 673.8,414.6 674.5,136.0 675.2,426.2 675.8,140.4 676.5,410.6 677.2,158.6 677.9,391.1 678.5,180.2 679.2,368.2 679.9,205.0 680.6,341.6 681.3,233.5 681.9,309.5 682.6,268.3 683.3,273.8 684.0,301.9 684.6,245.3 685.3,328.6 686.0,218.4 686.7,358.0 687.4,183.6 688.0,391.9 688.7,159.3 689.4,407.3 690.1,148.4 690.8,413.5 691.4,149.7 692.1,403.4 692.8,184.3 693.5,322.4 694.1,303.2 694.8,187.0 695.5,428.6 696.2,124.5 696.9,394.0 697.5,240.5 698.2,237.4 698.9,386.6 699.6,144.9 700.3,419.0 700.9,144.9 701.6,408.9 702.3,158.8 703.0,412.5 703.6,127.6 704.3,427.8 705.0,136.0 705.7,429.1 706.4,127.9 707.0,432.4 707.7,129.9 708.4,425.1 709.1,142.9 709.8,406.6 710.4,166.4 711.1,378.5 711.8,198.3 712.5,343.5 713.1,235.7 713.8,304.4 714.5,276.0 715.2,263.4 715.9,316.8 716.5,223.6 717.2,354.8 717.9,188.7 718.6,364.7 719.3,242.6 719.9,251.6 720.6,331.2 721.3,237.8 722.0,344.1 722.6,163.5 723.3,429.9 724.0,139.5 724.7,368.5 725.4,265.0 726.0,220.5 726.7,401.7 727.4,128.6 728.1,414.4 728.7,200.9 729.4,281.2 730.1,356.9 730.8,150.2 731.5,420.6 732.1,165.9 732.8,342.5 733.5,293.6 734.2,188.2 734.9,428.0 735.5,118.6 736.2,406.8 736.9,224.8 737.6,252.3 738.2,370.7 738.9,151.1 739.6,411.2 740.3,175.0 741.0,366.7 741.6,182.2 742.3,393.8 743.0,152.3 743.7,411.0 744.4,150.1 745.0,410.2 745.7,148.7 746.4,410.5 747.1,151.3 747.7,404.5 748.4,162.3 749.1,388.7 749.8,184.2 750.5,360.4 751.1,215.4 751.8,328.5 752.5,247.1 753.2,299.2 753.9,274.8 754.5,271.8 755.2,298.9 755.9,253.5 756.6,299.2 757.2,290.9 757.9,231.3 758.6,352.2 759.3,204.3 760.0,338.0 760.6,256.8 761.3,261.8 762.0,333.8 762.7,205.8 763.4,353.5 764.0,228.1 764.7,295.6 765.4,305.3 766.1,220.5 766.7,357.2 767.4,207.6 768.1,327.0 768.8,214.7 769.5,199.2 770.1,363.0 770.8,169.4 771.5,379.4 772.2,226.7 772.8,268.5 773.5,352.2 774.2,172.4 774.9,385.3 775.6,214.0 776.2,283.6 776.9,339.5 777.6,179.2 778.3,387.6 779.0,202.9 779.6,298.5 780.3,326.9 781.0,184.1 781.7,391.3 782.3,192.4 783.0,314.1 783.7,315.1 784.4,186.5 785.1,393.7 785.7,186.0 786.4,326.2 787.1,297.9 787.8,204.4 788.5,386.9 789.1,178.9 789.8,340.0 790.5,283.3 791.2,213.9 791.8,385.7 792.5,171.8 793.2,352.8 793.9,268.2 794.6,226.7 795.2,379.7 795.9,168.9 796.6,363.6 797.3,253.3 798.0,240.5 798.6,371.9 799.3,168.0 800.0,372.9 800.7,238.9 801.3,254.9 802.0,362.5 802.7,169.1 803.4,380.5 804.1,225.2 804.7,269.8 805.4,352.3 806.1,169.9 806.8,390.1 807.5,209.0 808.1,285.3 808.8,342.9 809.5,170.9 810.2,396.9 810.8,196.2 811.5,301.5 812.2,330.2 812.9,175.4 813.6,400.4 814.2,185.6 814.9,316.8 815.6,313.7 816.3,186.3 816.9,402.1 817.6,173.8 818.3,332.3 819.0,298.1 819.7,197.1 820.3,400.3 821.0,167.2 821.7,346.0 822.4,282.0 823.1,214.0 823.7,384.6 824.4,172.1 825.1,353.4 825.8,267.4 826.4,232.7 827.1,366.2 827.8,186.8 828.5,348.6 829.2,257.2 829.8,248.9 830.5,186.0 831.2,313.5 831.9,229.1 832.6,300.0 833.2,297.4 833.9,226.1 834.6,364.4 835.3,174.2 835.9,395.7 836.6,170.9 837.3,369.0 838.0,216.1 838.7,316.5 839.3,278.9 840.0,243.2 840.7,350.7 841.4,183.1 842.1,392.5 842.7,162.9 843.4,391.5 844.1,187.3 844.8,340.2 845.4,258.9 846.1,259.6 846.8,340.1 847.5,186.4 848.2,396.6 848.8,153.0 849.5,402.7 850.2,174.7 850.9,358.5 851.6,237.4 852.2,279.6 852.9,324.2 853.6,196.9 854.3,393.0 854.9,149.3 855.6,409.0 856.3,168.5 857.0,365.7 857.7,225.0 858.3,298.3 859.0,299.8 859.7,226.3 860.4,361.1 861.0,180.3 861.7,387.9 862.4,174.7 863.1,371.1 863.8,213.8 864.4,314.1 865.1,281.7 865.8,243.2 866.5,347.8 867.2,187.7 867.8,386.9 868.5,170.8 869.2,379.7 869.9,201.2 870.5,329.6 871.2,264.5 871.9,259.9 872.6,333.5 873.3,196.6 873.9,385.4 874.6,165.5 875.3,390.4 876.0,183.4 876.7,353.5 877.3,241.0 878.0,276.3 878.7,329.5 879.4,189.5 880.0,401.2 880.7,143.6 881.4,413.5 882.1,162.9 882.8,372.6 883.4,222.0 884.1,296.1 884.8,302.4 885.5,225.3 886.2,362.0 886.8,179.2 887.5,373.9" fill="none" stroke="#177481" stroke-width="3" stroke-linejoin="round" stroke-linecap="round"/>
  <text x="72" y="42" font-family="Inter, Arial, sans-serif" font-size="30" font-weight="700" fill="#20251f">Флейта: pitch через FFT</text>
  <text x="72" y="532" font-family="Inter, Arial, sans-serif" font-size="20" fill="#687066">показаны первые 6.0 с · длительность 6.8 с · 44100 Hz</text>
</svg>